<svg width="173" height="32" viewBox="0 0 173 32" fill="none" xmlns="http://www.w3.org/2000/svg">
<path d="M3.23398 14.7771C3.28121 16.6882 3.51238 17.2928 4.1388 17.4802C4.51933 17.57 4.90877 17.6161 5.29965 17.6176C5.41399 17.6176 5.4836 17.6651 5.4836 17.76C5.4836 17.8999 5.34688 17.9449 5.06599 17.9449C3.74356 17.9449 2.8288 17.8774 2.60757 17.8774C2.38633 17.8774 1.42683 17.9449 0.370379 17.9449C0.139203 17.9449 0 17.9224 0 17.76C0 17.6651 0.0696014 17.6176 0.186432 17.6176C0.508328 17.6202 0.828938 17.5765 1.13848 17.4877C1.72015 17.3228 1.83698 16.6483 1.83698 14.5273L1.85935 1.16668C1.85935 0.249824 1.92895 0 2.1129 0C2.29685 0 2.69457 0.512139 2.92574 0.749472C3.27375 1.14669 6.72896 4.89905 10.301 8.74384C12.5979 11.2146 15.1259 14.0576 15.8691 14.8271L15.6205 2.9879C15.5982 1.47396 15.4366 0.959324 14.7157 0.774454C14.3416 0.699363 13.9612 0.660048 13.5797 0.657037C13.4182 0.657037 13.3933 0.587086 13.3933 0.494652C13.3933 0.35475 13.5797 0.329768 13.8581 0.329768C14.9022 0.329768 16.0158 0.402217 16.2718 0.402217C16.5278 0.402217 17.291 0.329768 18.243 0.329768C18.4916 0.329768 18.6606 0.35475 18.6606 0.494652C18.6606 0.587086 18.5662 0.657037 18.4121 0.657037C18.2241 0.654476 18.0368 0.678015 17.8552 0.726988C17.0896 0.889374 16.9977 1.40401 16.9977 2.80053L16.9504 16.4584C16.9504 17.9973 16.9032 18.1147 16.7416 18.1147C16.58 18.1147 16.2793 17.8649 15.0488 16.6158C14.8002 16.3835 11.4544 12.9559 8.99349 10.2977C6.28898 7.3873 3.66899 4.45186 2.92574 3.61246L3.23398 14.7771ZM31.0447 0C36.2648 0 40.16 3.31017 40.16 8.74384C40.16 13.9652 36.496 18.2771 30.9055 18.2771C24.5494 18.2771 21.907 13.3131 21.907 9.11858C21.907 5.33624 24.6439 0 31.0447 0ZM31.5419 17.3853C33.6299 17.3853 37.9452 16.1736 37.9452 9.39088C37.9452 3.79733 34.5596 0.789444 30.8931 0.789444C27.0103 0.791942 24.1144 3.35514 24.1144 8.46154C24.1144 13.8902 27.3459 17.3853 31.5319 17.3853H31.5419ZM45.0719 7.08501C45.0719 3.45007 45.0719 2.79553 45.0271 2.05106C44.9799 1.25911 44.796 0.884377 44.0328 0.721991C43.7721 0.674183 43.5074 0.650766 43.2424 0.652041C43.1504 0.652041 43.0584 0.607072 43.0584 0.512139C43.0584 0.372238 43.1727 0.324771 43.4288 0.324771C44.4728 0.324771 45.9344 0.39722 46.0488 0.39722C46.6056 0.39722 47.5104 0.324771 48.5768 0.324771C52.3825 0.324771 53.2177 2.65813 53.2177 3.82231C53.2177 5.73346 52.1265 6.87516 51.0377 8.01685C52.7529 8.55397 55.0497 10.2078 55.0497 12.9359C55.0497 15.4341 53.1009 18.0148 49.1336 18.0148C48.885 18.0148 48.1393 17.9673 47.4632 17.9449C46.787 17.9224 46.1432 17.8774 46.0488 17.8774C46.004 17.8774 45.6088 17.8774 45.1216 17.8999C44.6344 17.9224 44.1273 17.9449 43.7768 17.9449C43.5282 17.9449 43.4064 17.8999 43.4064 17.76C43.4064 17.69 43.4512 17.6176 43.5904 17.6176C43.8247 17.6098 44.0577 17.5797 44.2864 17.5277C44.7512 17.4327 44.8656 16.9206 44.96 16.2436C45.0744 15.2667 45.0744 13.4255 45.0744 11.1871L45.0719 7.08501ZM46.9287 7.59715C46.9287 7.75953 46.976 7.807 47.0903 7.84697C47.5592 7.918 48.0332 7.94893 48.5072 7.93941C49.8048 7.93941 50.1304 7.89444 50.6176 7.33483C51.1593 6.67807 51.4518 5.84952 51.4429 4.99648C51.4429 3.06284 50.5828 0.999296 48.3108 0.999296C47.9366 0.997373 47.5632 1.0359 47.1972 1.11422C46.9884 1.16168 46.9188 1.23163 46.9188 1.36404L46.9287 7.59715ZM46.9287 10.0679C46.9287 11.8616 46.9287 14.7521 46.9511 15.1019C47.0232 16.2436 47.0232 16.5708 47.7416 16.9206C48.3655 17.2229 49.3648 17.2703 49.7824 17.2703C51.0253 17.2703 53.0512 16.5933 53.0512 13.9602C53.0512 12.5612 52.5888 10.5351 50.8016 9.29845C50.2329 8.90248 49.5679 8.66932 48.8776 8.62393C48.5743 8.57646 47.416 8.57646 47.0679 8.57646C46.976 8.57646 46.9287 8.62393 46.9287 8.73884V10.0679ZM62.5891 11.2346C62.5891 14.6597 62.6835 16.1511 63.0862 16.5708C63.4591 16.9431 64.0606 17.108 65.8703 17.108C67.1132 17.108 68.1199 17.083 68.6767 16.4084C68.9862 15.9972 69.1933 15.5175 69.2807 15.0094C69.3031 14.8221 69.3503 14.7046 69.4895 14.7046C69.6287 14.7046 69.6287 14.7996 69.6287 15.0544C69.5748 15.8394 69.4585 16.6189 69.2807 17.3853C69.1192 17.9224 69.0496 18.0148 67.8191 18.0148C66.1487 18.0148 64.9431 17.9673 63.9687 17.9449C62.9942 17.9224 62.2758 17.8774 61.6022 17.8774C61.5102 17.8774 61.1051 17.8999 60.6502 17.8999C60.1953 17.8999 59.6782 17.9449 59.3302 17.9449C59.0816 17.9449 58.9598 17.8999 58.9598 17.76C58.9598 17.69 59.0046 17.6176 59.1438 17.6176C59.3781 17.6098 59.6111 17.5797 59.8398 17.5277C60.3046 17.4327 60.419 16.9206 60.5134 16.2436C60.6278 15.2667 60.6278 13.4255 60.6278 11.1871V7.08501C60.6278 3.45007 60.6278 2.79553 60.583 2.05106C60.5358 1.25911 60.3494 0.884377 59.5887 0.721991C59.3288 0.674065 59.065 0.650646 58.8007 0.652041C58.7088 0.652041 58.6143 0.607072 58.6143 0.512139C58.6143 0.372238 58.7311 0.324771 58.9872 0.324771C60.0312 0.324771 61.4928 0.39722 61.6072 0.39722C61.7215 0.39722 63.4168 0.324771 64.1128 0.324771C64.3614 0.324771 64.4832 0.372238 64.4832 0.512139C64.4832 0.607072 64.3912 0.652041 64.2993 0.652041C64.0427 0.656726 63.7868 0.680104 63.5336 0.721991C62.86 0.839409 62.6761 1.23413 62.6288 2.05106C62.5816 2.80053 62.5816 3.45007 62.5816 7.08501L62.5891 11.2346ZM74.3616 7.08501C74.3616 3.45007 74.3616 2.79553 74.3169 2.05106C74.2697 1.25911 74.0832 0.884377 73.3226 0.721991C73.0627 0.674065 72.7989 0.650646 72.5346 0.652041C72.4426 0.652041 72.3482 0.607072 72.3482 0.512139C72.3482 0.372238 72.465 0.324771 72.721 0.324771C73.253 0.324771 73.8794 0.324771 74.389 0.349754L75.341 0.39722C75.5026 0.39722 80.1187 0.39722 80.6531 0.372238C80.9871 0.360466 81.3195 0.322039 81.6474 0.257319C81.7642 0.232336 81.8562 0.139901 81.9731 0.139901C82.0426 0.139901 82.065 0.232336 82.065 0.349754C82.065 0.512139 81.9482 0.791942 81.8811 1.44398C81.8562 1.67882 81.8115 2.6931 81.7642 2.9829C81.7419 3.10032 81.6946 3.23272 81.6027 3.23272C81.4635 3.23272 81.4162 3.11531 81.4162 2.92794C81.4171 2.64307 81.3701 2.36011 81.277 2.09103C81.1155 1.71629 80.8818 1.43649 79.6315 1.29659C79.2362 1.25162 76.7082 1.22664 76.4522 1.22664C76.3602 1.22664 76.313 1.29659 76.313 1.46147V7.90193C76.313 8.06432 76.3378 8.13427 76.4522 8.13427C76.7529 8.13427 79.6066 8.13427 80.141 8.0868C80.6755 8.03934 81.021 7.99437 81.2298 7.75953C81.3914 7.57466 81.4784 7.45725 81.5778 7.45725C81.6772 7.45725 81.6946 7.50471 81.6946 7.64462C81.6946 7.78452 81.5778 8.17924 81.5082 8.9487C81.4635 9.41587 81.4162 10.2778 81.4162 10.4476C81.4162 10.6175 81.4162 10.8923 81.2547 10.8923C81.1378 10.8923 81.0906 10.7974 81.0906 10.6825C81.1017 10.4227 81.0707 10.1628 80.9986 9.91302C80.9067 9.58575 80.6978 9.19103 79.793 9.09609C79.1666 9.02614 76.8698 8.98117 76.4745 8.98117C76.4527 8.97881 76.4307 8.98138 76.41 8.9887C76.3894 8.99602 76.3706 9.00791 76.3551 9.02349C76.3396 9.03907 76.3277 9.05794 76.3205 9.07872C76.3132 9.0995 76.3106 9.12165 76.313 9.14356V11.1946C76.313 11.9866 76.2906 14.6922 76.313 15.1793C76.3826 16.7882 76.7306 17.0905 79.0026 17.0905C79.6066 17.0905 80.6283 17.0905 81.2397 16.8406C81.8512 16.5908 82.1222 16.1186 82.2838 15.1643C82.331 14.9145 82.3782 14.8146 82.4926 14.8146C82.6069 14.8146 82.6318 14.9994 82.6318 15.1643C82.5691 15.9184 82.4687 16.6688 82.331 17.4127C82.1669 18.0173 81.983 18.0173 81.0881 18.0173C79.3481 18.0173 78.0729 17.9698 77.1681 17.9474C76.2632 17.9249 75.7064 17.8799 75.3584 17.8799C75.3112 17.8799 74.9184 17.8799 74.4312 17.9024C73.944 17.9249 73.4369 17.9474 73.0864 17.9474C72.8379 17.9474 72.7136 17.9024 72.7136 17.7625C72.7136 17.6925 72.7608 17.6201 72.9 17.6201C73.1343 17.6123 73.3674 17.5822 73.596 17.5302C74.0609 17.4352 74.1752 16.9231 74.2697 16.2461C74.384 15.2692 74.384 13.428 74.384 11.1896L74.3616 7.08501ZM103.574 14.7396H103.659C104.285 12.5961 106.418 5.83589 107.231 2.85299C107.387 2.36844 107.471 1.8633 107.479 1.35405C107.479 0.934342 107.231 0.654539 106.155 0.654539C106.106 0.660195 106.057 0.646321 106.018 0.615924C105.98 0.585527 105.954 0.541057 105.948 0.492153C105.948 0.374736 106.063 0.327269 106.343 0.327269C107.524 0.327269 108.499 0.399718 108.707 0.399718C108.871 0.399718 109.868 0.327269 110.587 0.327269C110.795 0.327269 110.91 0.374736 110.91 0.469669C110.91 0.564602 110.843 0.654539 110.704 0.654539C110.436 0.657871 110.17 0.697365 109.913 0.771956C109.22 1.02178 108.847 2.00609 108.407 3.28768C107.402 6.2456 105.061 13.6579 104.156 16.2685C103.552 17.9923 103.438 18.2671 103.182 18.2671C102.926 18.2671 102.809 17.9623 102.486 17.0555L97.9416 4.07713H97.8944C97.0616 6.32554 93.8823 14.8695 93.0471 17.038C92.6768 18.0148 92.55 18.2721 92.2815 18.2721C92.0503 18.2721 91.936 18.0223 91.4712 16.4284L87.3373 2.61066C86.9669 1.37653 86.6662 1.02678 86.0621 0.791942C85.7224 0.69629 85.3709 0.649194 85.0181 0.652041C84.9013 0.652041 84.8118 0.629557 84.8118 0.489655C84.8118 0.349754 84.9485 0.324771 85.1822 0.324771C86.3853 0.324771 87.6679 0.39722 87.9165 0.39722C88.1278 0.39722 89.147 0.324771 90.3078 0.324771C90.6335 0.324771 90.7254 0.39722 90.7254 0.489655C90.7254 0.629557 90.6086 0.652041 90.4918 0.652041C90.1846 0.636481 89.8776 0.684086 89.5894 0.791942C89.4925 0.847922 89.413 0.929935 89.3599 1.02878C89.3068 1.12763 89.2821 1.2394 89.2887 1.35155C89.3952 2.07537 89.5455 2.79202 89.7386 3.49754C90.0891 4.99648 92.5003 13.543 92.8483 14.7796H92.8955L97.7999 1.46897C98.1479 0.512139 98.2424 0.39722 98.3791 0.39722C98.5158 0.39722 98.6873 0.699507 98.9608 1.49894L103.574 14.7396ZM121.183 0C126.404 0 130.301 3.31017 130.301 8.74384C130.301 13.9652 126.635 18.2771 121.047 18.2771C114.691 18.2771 112.046 13.3131 112.046 9.11858C112.046 5.33624 114.783 0 121.183 0ZM121.681 17.3853C123.766 17.3853 128.081 16.1736 128.081 9.39088C128.081 3.79733 124.696 0.789444 121.032 0.789444C117.157 0.789444 114.258 3.35264 114.258 8.45904C114.251 13.8902 117.497 17.3853 121.673 17.3853H121.681ZM142.392 0C147.612 0 151.507 3.31017 151.507 8.74384C151.507 13.9652 147.843 18.2771 142.253 18.2771C135.897 18.2771 133.252 13.3131 133.252 9.11858C133.252 5.33624 135.991 0 142.392 0ZM142.889 17.3853C144.977 17.3853 149.29 16.1736 149.29 9.39088C149.29 3.79733 145.904 0.789444 142.24 0.789444C138.368 0.789444 135.467 3.35264 135.467 8.45904C135.457 13.8902 138.708 17.3853 142.879 17.3853H142.889ZM157.103 7.08501C157.103 3.45007 157.103 2.79553 157.056 2.05106C157.011 1.25911 156.824 0.884377 156.061 0.721991C155.801 0.674294 155.538 0.650877 155.273 0.652041C155.179 0.652041 155.087 0.607072 155.087 0.512139C155.087 0.372238 155.204 0.324771 155.457 0.324771C156.504 0.324771 157.965 0.39722 158.08 0.39722C158.358 0.39722 159.82 0.324771 161.212 0.324771C163.509 0.324771 167.752 0.114919 170.513 2.9829C171.672 4.19455 172.751 6.12818 172.751 8.90373C172.781 11.3352 171.885 13.6862 170.245 15.4741C169.251 16.5234 167.16 18.1547 163.215 18.1547C162.221 18.1547 160.978 18.0848 159.984 18.0148C158.989 17.9449 158.177 17.8774 158.06 17.8774C158.013 17.8774 157.617 17.8774 157.133 17.8999C156.648 17.9224 156.138 17.9449 155.785 17.9449C155.537 17.9449 155.415 17.8999 155.415 17.76C155.415 17.69 155.46 17.6176 155.601 17.6176C155.836 17.6097 156.069 17.5796 156.297 17.5277C156.762 17.4327 156.874 16.9206 156.969 16.2436C157.085 15.2667 157.085 13.4255 157.085 11.1871L157.103 7.08501ZM159.052 9.60324C159.052 12.0715 159.074 14.215 159.099 14.6597C159.119 15.2418 159.166 16.1736 159.347 16.4284C159.648 16.8731 160.556 17.3628 163.29 17.3628C165.447 17.3628 167.444 16.5708 168.811 15.1968C170.019 14.0076 170.668 11.7692 170.668 9.62572C170.668 6.6653 169.392 4.75415 168.43 3.75236C166.25 1.44398 163.606 1.11921 160.846 1.11921C160.339 1.11141 159.832 1.16595 159.337 1.2816C159.247 1.31748 159.172 1.38352 159.124 1.4686C159.077 1.55368 159.06 1.65262 159.076 1.74877C159.054 2.54071 159.054 4.91903 159.054 6.71277L159.052 9.60324ZM64.4434 30.1513C64.4111 30.1513 64.3987 30.1663 64.3838 30.2037L64.0358 31.1331C63.9826 31.2594 63.9498 31.3935 63.9388 31.5303C63.9388 31.6477 63.996 31.7326 64.1874 31.7326H64.2843C64.3614 31.7326 64.3813 31.7326 64.3813 31.7851C64.3813 31.8376 64.344 31.8501 64.2719 31.8501C64.0631 31.8501 63.7748 31.8301 63.5858 31.8301C63.5138 31.8301 63.1583 31.8501 62.8202 31.8501C62.7382 31.8501 62.6984 31.8501 62.6984 31.7851C62.6984 31.7202 62.7382 31.7326 62.7879 31.7326C62.8508 31.7366 62.9139 31.7366 62.9768 31.7326C63.2751 31.6927 63.3969 31.4828 63.5262 31.1456L65.1519 27.0609C65.2289 26.8736 65.2737 26.8111 65.3333 26.8111C65.393 26.8111 65.4303 26.8686 65.4949 27.0185C65.6515 27.3757 66.6856 30.0313 67.1007 31.0157C67.3493 31.6002 67.5357 31.6927 67.67 31.7252C67.7601 31.7425 67.8517 31.7509 67.9434 31.7501C67.9956 31.7501 68.0279 31.7501 68.0279 31.8026C68.0279 31.8551 67.9682 31.8676 67.7296 31.8676C67.491 31.8676 66.9839 31.8676 66.4594 31.8676C66.3426 31.8676 66.3102 31.8676 66.3102 31.8151C66.3102 31.7626 66.3376 31.7626 66.4022 31.7576C66.4163 31.7523 66.4292 31.744 66.4399 31.7333C66.4506 31.7226 66.4589 31.7097 66.4643 31.6956C66.4697 31.6814 66.472 31.6663 66.4712 31.6511C66.4704 31.636 66.4663 31.6212 66.4594 31.6077L65.9424 30.2287C65.9385 30.2146 65.93 30.2023 65.9182 30.1937C65.9065 30.1851 65.8922 30.1807 65.8777 30.1812L64.4434 30.1513ZM65.7634 29.8265C65.7982 29.8265 65.8032 29.8065 65.7982 29.789L65.214 28.1801C65.1941 28.1227 65.1693 28.1027 65.1419 28.1801L64.5454 29.7815C64.5454 29.8065 64.5454 29.8265 64.5727 29.8265H65.7634ZM70.9586 29.9639C70.9586 30.5635 70.9586 31.0756 70.9909 31.3554C71.0108 31.5378 71.0506 31.6802 71.2395 31.7077C71.3491 31.7225 71.4595 31.7308 71.5701 31.7326C71.6397 31.7326 71.6745 31.7526 71.6745 31.7851C71.6745 31.8176 71.6198 31.8501 71.5502 31.8501C71.1227 31.8501 70.715 31.8301 70.5336 31.8301C70.3521 31.8301 69.9767 31.8501 69.7182 31.8501C69.6337 31.8501 69.589 31.8301 69.589 31.7851C69.589 31.7401 69.6138 31.7326 69.6909 31.7326C69.7694 31.7327 69.8478 31.7244 69.9246 31.7077C70.0538 31.6802 70.0936 31.5378 70.1135 31.3479C70.1458 31.0756 70.1458 30.5635 70.1458 29.9639V27.2958L69.1788 27.3233C68.8035 27.3233 68.6493 27.3682 68.5524 27.5106C68.5034 27.5796 68.4664 27.6565 68.443 27.738C68.4281 27.7904 68.4107 27.8179 68.3709 27.8179C68.3312 27.8179 68.3113 27.7829 68.3113 27.713C68.3113 27.643 68.4356 27.016 68.448 26.9635C68.4604 26.911 68.4878 26.8411 68.5275 26.8411C68.6166 26.8764 68.7091 26.9024 68.8035 26.9185C68.9924 26.9385 69.2385 26.951 69.4523 26.951H72.0151C72.1648 26.9508 72.3143 26.94 72.4625 26.9185C72.5206 26.9039 72.5795 26.8931 72.639 26.8861C72.6837 26.8861 72.6887 26.926 72.6887 27.0235C72.6887 27.1209 72.6713 27.6081 72.6713 27.7729C72.6713 27.8379 72.6514 27.8754 72.6117 27.8754C72.5719 27.8754 72.547 27.8429 72.5396 27.7455C72.5396 27.728 72.5396 27.6955 72.5396 27.6755C72.5271 27.5056 72.3507 27.3233 71.774 27.3108C71.6074 27.3108 71.3414 27.3108 70.9586 27.2908V29.9639ZM78.3041 29.0345C78.3041 30.2837 78.5526 30.8183 78.9752 31.1655C79.2794 31.4106 79.6621 31.5358 80.0516 31.5178C80.4932 31.5246 80.9199 31.3568 81.2397 31.0506C81.7145 30.576 81.7369 29.8015 81.7369 28.9071V27.8254C81.7369 26.5088 81.7369 26.2665 81.7195 25.9892C81.7021 25.7119 81.6325 25.557 81.3491 25.4895C81.246 25.4772 81.142 25.4747 81.0384 25.482C80.9439 25.482 80.8917 25.4671 80.8917 25.4046C80.8917 25.3421 80.9539 25.3272 81.0732 25.3272C81.5132 25.3272 82.0551 25.3521 82.0675 25.3521C82.1694 25.3521 82.7138 25.3272 83.0494 25.3272C83.1687 25.3272 83.2284 25.3446 83.2284 25.4046C83.2284 25.4646 83.1786 25.482 83.0742 25.482C82.9907 25.4832 82.9075 25.4924 82.8257 25.5095C82.5945 25.552 82.5249 25.6994 82.5075 26.0092C82.4901 26.319 82.4901 26.5288 82.4901 27.8454V28.7697C82.4901 29.7316 82.3956 30.7508 81.6723 31.3754C81.1762 31.8041 80.5361 32.0266 79.8825 31.9975C79.4251 31.9975 78.5999 31.9725 77.9685 31.4004C77.531 31.0032 77.2029 30.3636 77.2029 29.107V27.8454C77.2029 26.5288 77.2029 26.2865 77.1855 26.0092C77.1681 25.7319 77.101 25.577 76.8151 25.5095C76.7044 25.4893 76.592 25.4801 76.4795 25.482C76.385 25.482 76.3353 25.4671 76.3353 25.4046C76.3353 25.3421 76.395 25.3272 76.5243 25.3272C76.9791 25.3272 77.5186 25.3521 77.7671 25.3521C77.9759 25.3521 78.5129 25.3272 78.8261 25.3272C78.9553 25.3272 79.0175 25.3446 79.0175 25.4046C79.0175 25.4646 78.9653 25.482 78.8783 25.482C78.7947 25.483 78.7114 25.4922 78.6297 25.5095C78.396 25.552 78.3264 25.6994 78.3115 26.0092C78.2966 26.319 78.2941 26.5288 78.2941 27.8454L78.3041 29.0345ZM87.9091 29.3468C87.9091 30.1438 87.909 30.8258 87.9513 31.198C87.9787 31.4478 88.0309 31.6327 88.2869 31.6652C88.4327 31.6858 88.5796 31.6975 88.7269 31.7002C88.8213 31.7002 88.8661 31.7276 88.8661 31.7701C88.8661 31.8126 88.7965 31.8576 88.702 31.8576C88.1328 31.8576 87.5909 31.8301 87.3498 31.8301C87.1509 31.8301 86.604 31.8576 86.2635 31.8576C86.1541 31.8576 86.092 31.8301 86.092 31.7701C86.092 31.7102 86.1268 31.7002 86.2312 31.7002C86.3349 31.7001 86.4383 31.6884 86.5394 31.6652C86.7134 31.6327 86.7631 31.4429 86.788 31.1905C86.8302 30.8258 86.8302 30.1438 86.8302 29.3468V25.7993C86.5046 25.7993 85.9702 25.8268 85.5476 25.8343C85.0504 25.8518 84.8416 25.8943 84.7124 26.0841C84.6464 26.1756 84.5968 26.2779 84.5657 26.3864C84.5483 26.4564 84.5234 26.4888 84.4712 26.4888C84.419 26.4888 84.3942 26.4464 84.3942 26.3514C84.3942 26.2115 84.5582 25.4246 84.5756 25.3521C84.6005 25.2372 84.6254 25.1873 84.6776 25.1873C84.7976 25.233 84.9216 25.2673 85.0479 25.2897C85.3346 25.3185 85.6225 25.3326 85.9105 25.3322H89.3185C89.5173 25.3324 89.7158 25.3182 89.9126 25.2897C89.9897 25.2714 90.0677 25.2572 90.1462 25.2472C90.2059 25.2472 90.2134 25.2997 90.2134 25.4296C90.2134 25.6095 90.1885 26.2065 90.1885 26.4289C90.1885 26.5163 90.1636 26.5688 90.1114 26.5688C90.0592 26.5688 90.0244 26.5238 90.017 26.3939C90.017 26.3689 90.017 26.3265 90.017 26.299C90.0021 26.0766 89.7684 25.8318 89.0028 25.8168C88.7791 25.8168 88.4236 25.7993 87.9165 25.7893L87.9091 29.3468ZM92.5201 27.8254C92.5201 26.5088 92.5201 26.2665 92.5027 25.9892C92.4853 25.7119 92.3983 25.5495 92.2094 25.5045C92.1077 25.48 92.0033 25.4683 91.8987 25.4696C91.8142 25.4696 91.762 25.4546 91.762 25.3846C91.762 25.3147 91.8316 25.3147 91.9683 25.3147C92.2964 25.3147 92.8383 25.3396 93.0869 25.3396C93.3355 25.3396 93.8127 25.3147 94.1384 25.3147C94.2502 25.3147 94.3198 25.3322 94.3198 25.3846C94.3198 25.4371 94.2676 25.4696 94.1831 25.4696C94.0996 25.4717 94.0165 25.4809 93.9345 25.497C93.7034 25.5395 93.6338 25.6869 93.6164 25.9967C93.599 26.3065 93.599 26.5163 93.599 27.8329V29.3543C93.599 30.1937 93.599 30.8782 93.6338 31.2505C93.6611 31.4828 93.7208 31.6402 93.9793 31.6727C94.1251 31.6934 94.272 31.7051 94.4193 31.7077C94.5137 31.7077 94.556 31.7351 94.556 31.7776C94.556 31.8201 94.4864 31.8651 94.3919 31.8651C93.8252 31.8651 93.2808 31.8376 93.0496 31.8376C92.8184 31.8376 92.3039 31.8651 91.9633 31.8651C91.8515 31.8651 91.7918 31.8376 91.7918 31.7776C91.7918 31.7177 91.8266 31.7077 91.931 31.7077C92.0347 31.7076 92.1381 31.6959 92.2393 31.6727C92.4108 31.6402 92.463 31.4903 92.4878 31.2405C92.5301 30.8783 92.5301 30.1937 92.5301 29.3543L92.5201 27.8254ZM97.1909 31.0356C96.8586 30.7203 96.5927 30.341 96.409 29.9203C96.2254 29.4997 96.1278 29.0462 96.122 28.5869C96.1162 28.1275 96.2024 27.6717 96.3753 27.2465C96.5482 26.8213 96.8045 26.4353 97.1288 26.1116C97.7502 25.5395 98.568 25.1948 99.8507 25.1948C100.266 25.1935 100.682 25.2219 101.094 25.2797C101.422 25.3247 101.722 25.4021 101.981 25.4271C102.075 25.4271 102.083 25.4796 102.083 25.532C102.083 25.5845 102.058 25.7044 102.041 26.0067C102.023 26.309 102.041 26.7686 102.016 26.941C102.016 27.0709 101.988 27.1509 101.911 27.1509C101.834 27.1509 101.827 27.0709 101.827 26.951C101.812 26.6533 101.692 26.3707 101.489 26.1541C101.205 25.8518 100.534 25.617 99.7487 25.617C99.003 25.617 98.5059 25.8093 98.1305 26.1541C97.5016 26.7337 97.3376 27.5556 97.3376 28.4025C97.3376 30.461 98.8961 31.4828 100.052 31.4828C100.818 31.4828 101.282 31.3954 101.626 30.9982C101.766 30.8327 101.866 30.6369 101.919 30.4261C101.946 30.2887 101.961 30.2562 102.031 30.2562C102.1 30.2562 102.11 30.3161 102.11 30.3836C102.074 30.7716 102.01 31.1565 101.919 31.5353C101.91 31.5945 101.885 31.6499 101.845 31.6943C101.805 31.7388 101.753 31.7704 101.695 31.7851C101.193 31.9339 100.67 32.0013 100.146 31.985C98.9533 31.9775 97.964 31.7277 97.181 31.0356H97.1909ZM105.29 29.5991C105.245 29.5991 105.227 29.6166 105.212 29.6666L104.745 30.9157C104.675 31.0834 104.632 31.2614 104.618 31.4429C104.618 31.5977 104.693 31.7102 104.961 31.7102H105.091C105.193 31.7102 105.22 31.7276 105.22 31.7801C105.22 31.8326 105.168 31.8676 105.073 31.8676C104.797 31.8676 104.427 31.8401 104.161 31.8401C104.067 31.8401 103.592 31.8676 103.144 31.8676C103.032 31.8676 102.98 31.8501 102.98 31.7801C102.98 31.7102 103.032 31.7102 103.102 31.7102C103.185 31.7097 103.268 31.7038 103.351 31.6927C103.748 31.6427 103.91 31.3479 104.084 30.9157L106.234 25.482C106.339 25.2322 106.398 25.1373 106.483 25.1373C106.567 25.1373 106.612 25.2147 106.699 25.4146C106.905 25.8893 108.282 29.4118 108.834 30.7358C109.162 31.5153 109.411 31.6352 109.58 31.6777C109.699 31.7017 109.819 31.7134 109.94 31.7127C110.01 31.7127 110.052 31.7301 110.052 31.7826C110.052 31.8351 109.975 31.8701 109.657 31.8701C109.339 31.8701 108.663 31.8701 107.969 31.8526C107.815 31.8526 107.77 31.8351 107.77 31.7826C107.77 31.7301 107.805 31.7127 107.892 31.7052C107.911 31.6982 107.928 31.6873 107.943 31.6731C107.957 31.6589 107.968 31.6417 107.976 31.6228C107.983 31.6039 107.986 31.5836 107.985 31.5633C107.984 31.5431 107.979 31.5233 107.969 31.5053L107.281 29.6716C107.275 29.6532 107.263 29.6372 107.248 29.6263C107.232 29.6154 107.213 29.6102 107.194 29.6116L105.29 29.5991ZM107.047 29.1645C107.087 29.1645 107.097 29.1395 107.087 29.1145L106.304 26.981C106.276 26.9035 106.244 26.8786 106.209 26.981L105.416 29.1095C105.416 29.1445 105.416 29.1695 105.451 29.1695L107.047 29.1645ZM22.7547 28.1277L56.4741 28.8397C56.6829 28.8397 56.8519 28.6148 56.8519 28.34V27.9228C56.8519 27.6455 56.6829 27.4232 56.4741 27.4232L22.7547 28.1277ZM150.011 28.1277L116.292 27.4806C116.182 27.4914 116.081 27.5451 116.01 27.6302C115.939 27.7153 115.905 27.8249 115.914 27.9353V28.3101C115.905 28.4205 115.939 28.5301 116.01 28.6152C116.081 28.7002 116.182 28.754 116.292 28.7647L150.011 28.1277Z" fill="#28323C"/>
</svg>
