<svg width="218" height="40" viewBox="0 0 218 40" fill="none" xmlns="http://www.w3.org/2000/svg">
<g clip-path="url(#clip0_728_2258)">
<path d="M4.06584 18.4714C4.12522 20.8603 4.41586 21.616 5.2034 21.8502C5.68182 21.9625 6.17143 22.0201 6.66285 22.022C6.80661 22.022 6.89412 22.0813 6.89412 22.2C6.89412 22.3749 6.72223 22.4311 6.36909 22.4311C4.7065 22.4311 3.55644 22.3468 3.2783 22.3468C3.00016 22.3468 1.79385 22.4311 0.46565 22.4311C0.175009 22.4311 0 22.403 0 22.2C0 22.0813 0.0875046 22.022 0.234387 22.022C0.639083 22.0253 1.04216 21.9706 1.43133 21.8596C2.16261 21.6535 2.3095 20.8103 2.3095 18.1591L2.33762 1.45835C2.33762 0.31228 2.42513 0 2.65639 0C2.88765 0 3.38768 0.640174 3.67832 0.93684C4.11584 1.43337 8.45982 6.12381 12.9507 10.9298C15.8383 14.0183 19.0166 17.572 19.9511 18.5338L19.6385 3.73487C19.6104 1.84245 19.4073 1.19916 18.501 0.968068C18.0306 0.874204 17.5524 0.82506 17.0728 0.821297C16.8696 0.821297 16.8384 0.733858 16.8384 0.618314C16.8384 0.443438 17.0728 0.41221 17.4228 0.41221C18.7354 0.41221 20.1354 0.502771 20.4573 0.502771C20.7792 0.502771 21.7387 0.41221 22.9356 0.41221C23.2481 0.41221 23.4606 0.443438 23.4606 0.618314C23.4606 0.733858 23.3419 0.821297 23.1481 0.821297C22.9118 0.818094 22.6763 0.847519 22.4481 0.908735C21.4855 1.11172 21.3699 1.75501 21.3699 3.50066L21.3105 20.573C21.3105 22.4967 21.2511 22.6434 21.048 22.6434C20.8449 22.6434 20.4667 22.3311 18.9198 20.7697C18.6072 20.4793 14.4008 16.1948 11.3068 12.8722C7.90667 9.23412 4.61275 5.56483 3.67832 4.51557L4.06584 18.4714ZM39.0302 0C45.593 0 50.4902 4.13771 50.4902 10.9298C50.4902 17.4565 45.8837 22.8464 38.8552 22.8464C30.8641 22.8464 27.5421 16.6414 27.5421 11.3982C27.5421 6.6703 30.9829 0 39.0302 0ZM39.6552 21.7316C42.2804 21.7316 47.7057 20.217 47.7057 11.7386C47.7057 4.74666 43.4492 0.986805 38.8396 0.986805C33.9581 0.989928 30.3172 4.19392 30.3172 10.5769C30.3172 17.3628 34.38 21.7316 39.6427 21.7316H39.6552ZM56.6655 8.85626C56.6655 4.31259 56.6655 3.49441 56.6093 2.56382C56.5499 1.57389 56.3186 1.10547 55.3592 0.902489C55.0313 0.842729 54.6986 0.813457 54.3654 0.815051C54.2498 0.815051 54.1341 0.75884 54.1341 0.640174C54.1341 0.465297 54.2779 0.405964 54.5998 0.405964C55.9123 0.405964 57.7499 0.496525 57.8937 0.496525C58.5937 0.496525 59.7313 0.405964 61.072 0.405964C65.8566 0.405964 66.9067 3.32266 66.9067 4.77788C66.9067 7.16683 65.5347 8.59395 64.1659 10.0211C66.3223 10.6925 69.2099 12.7598 69.2099 16.1699C69.2099 19.2927 66.7598 22.5185 61.772 22.5185C61.4595 22.5185 60.522 22.4592 59.6719 22.4311C58.8219 22.403 58.0125 22.3468 57.8937 22.3468C57.8374 22.3468 57.3405 22.3468 56.728 22.3749C56.1155 22.403 55.4779 22.4311 55.0373 22.4311C54.7248 22.4311 54.5716 22.3749 54.5716 22.2C54.5716 22.1125 54.6279 22.022 54.8029 22.022C55.0975 22.0123 55.3905 21.9746 55.678 21.9096C56.2624 21.7909 56.4061 21.1507 56.5249 20.3044C56.6686 19.0834 56.6686 16.7819 56.6686 13.9839L56.6655 8.85626ZM59 9.49644C59 9.69942 59.0594 9.75875 59.2031 9.80872C59.7926 9.89751 60.3885 9.93616 60.9845 9.92426C62.6158 9.92426 63.0252 9.86805 63.6378 9.16854C64.3188 8.34759 64.6865 7.3119 64.6753 6.2456C64.6753 3.82855 63.594 1.24912 60.7376 1.24912C60.2671 1.24672 59.7977 1.29488 59.3375 1.39277C59.075 1.4521 58.9875 1.53954 58.9875 1.70505L59 9.49644ZM59 12.5849C59 14.8271 59 18.4401 59.0281 18.8773C59.1188 20.3044 59.1188 20.7135 60.0219 21.1507C60.8064 21.5286 62.0627 21.5879 62.5877 21.5879C64.1503 21.5879 66.6973 20.7416 66.6973 17.4502C66.6973 15.7014 66.116 13.1688 63.869 11.6231C63.1541 11.1281 62.318 10.8367 61.4501 10.7799C61.0689 10.7206 59.6125 10.7206 59.175 10.7206C59.0594 10.7206 59 10.7799 59 10.9236V12.5849ZM78.6886 14.0432C78.6886 18.3246 78.8073 20.1889 79.3136 20.7135C79.7824 21.1788 80.5387 21.3849 82.8138 21.3849C84.3764 21.3849 85.642 21.3537 86.3421 20.5106C86.7312 19.9965 86.9916 19.3969 87.1015 18.7618C87.1296 18.5276 87.189 18.3808 87.364 18.3808C87.539 18.3808 87.539 18.4995 87.539 18.818C87.4713 19.7993 87.3249 20.7736 87.1015 21.7316C86.8984 22.403 86.8109 22.5185 85.2639 22.5185C83.1638 22.5185 81.6481 22.4592 80.423 22.4311C79.198 22.403 78.2948 22.3468 77.4479 22.3468C77.3322 22.3468 76.8228 22.3749 76.2509 22.3749C75.679 22.3749 75.029 22.4311 74.5915 22.4311C74.2789 22.4311 74.1258 22.3749 74.1258 22.2C74.1258 22.1125 74.1821 22.022 74.3571 22.022C74.6517 22.0123 74.9447 21.9746 75.2321 21.9096C75.8165 21.7909 75.9603 21.1507 76.079 20.3044C76.2228 19.0834 76.2228 16.7819 76.2228 13.9839V8.85626C76.2228 4.31259 76.2228 3.49441 76.1665 2.56382C76.1072 1.57389 75.8728 1.10547 74.9165 0.902489C74.5897 0.842581 74.258 0.813308 73.9258 0.815051C73.8102 0.815051 73.6914 0.75884 73.6914 0.640174C73.6914 0.465297 73.8383 0.405964 74.1602 0.405964C75.4728 0.405964 77.3104 0.496525 77.4541 0.496525C77.5979 0.496525 79.7292 0.405964 80.6043 0.405964C80.9168 0.405964 81.0699 0.465297 81.0699 0.640174C81.0699 0.75884 80.9543 0.815051 80.8387 0.815051C80.5161 0.820907 80.1944 0.85013 79.8761 0.902489C79.0292 1.04926 78.7979 1.54266 78.7386 2.56382C78.6792 3.50066 78.6792 4.31259 78.6792 8.85626L78.6886 14.0432ZM93.4893 8.85626C93.4893 4.31259 93.4893 3.49441 93.4331 2.56382C93.3737 1.57389 93.1393 1.10547 92.183 0.902489C91.8562 0.842581 91.5246 0.813308 91.1923 0.815051C91.0767 0.815051 90.958 0.75884 90.958 0.640174C90.958 0.465297 91.1048 0.405964 91.4267 0.405964C92.0955 0.405964 92.8831 0.405964 93.5237 0.437192L94.7207 0.496525C94.9238 0.496525 100.727 0.496525 101.399 0.465297C101.819 0.450583 102.237 0.402548 102.649 0.321648C102.796 0.29042 102.912 0.174877 103.059 0.174877C103.146 0.174877 103.174 0.29042 103.174 0.437192C103.174 0.640174 103.027 0.989928 102.943 1.80498C102.912 2.09852 102.855 3.36638 102.796 3.72862C102.768 3.8754 102.709 4.0409 102.593 4.0409C102.418 4.0409 102.359 3.89413 102.359 3.65992C102.36 3.30384 102.301 2.95014 102.184 2.61378C101.98 2.14536 101.687 1.79561 100.115 1.62073C99.6178 1.56452 96.4395 1.53329 96.1176 1.53329C96.002 1.53329 95.9426 1.62073 95.9426 1.82684V9.87742C95.9426 10.0804 95.9738 10.1678 96.1176 10.1678C96.4957 10.1678 100.083 10.1678 100.755 10.1085C101.427 10.0492 101.862 9.99296 102.124 9.69942C102.327 9.46833 102.437 9.32156 102.562 9.32156C102.687 9.32156 102.709 9.38089 102.709 9.55577C102.709 9.73065 102.562 10.224 102.474 11.1859C102.418 11.7698 102.359 12.8472 102.359 13.0596C102.359 13.2719 102.359 13.6154 102.155 13.6154C102.009 13.6154 101.949 13.4967 101.949 13.3531C101.963 13.0283 101.924 12.7035 101.834 12.3913C101.718 11.9822 101.455 11.4888 100.318 11.3701C99.5303 11.2827 96.6426 11.2265 96.1457 11.2265C96.1183 11.2235 96.0906 11.2267 96.0646 11.2359C96.0386 11.245 96.015 11.2599 95.9955 11.2794C95.976 11.2988 95.9612 11.3224 95.952 11.3484C95.9429 11.3744 95.9396 11.4021 95.9426 11.4294V13.9933C95.9426 14.9832 95.9145 18.3652 95.9426 18.9741C96.0301 20.9852 96.4676 21.3631 99.324 21.3631C100.083 21.3631 101.368 21.3631 102.137 21.0508C102.905 20.7385 103.246 20.1483 103.449 18.9554C103.509 18.6431 103.568 18.5182 103.712 18.5182C103.856 18.5182 103.887 18.7493 103.887 18.9554C103.808 19.898 103.682 20.836 103.509 21.7659C103.302 22.5216 103.071 22.5216 101.946 22.5216C99.7584 22.5216 98.1552 22.4623 97.0177 22.4342C95.8801 22.4061 95.1801 22.3499 94.7425 22.3499C94.6832 22.3499 94.1894 22.3499 93.5769 22.378C92.9643 22.4061 92.3268 22.4342 91.8861 22.4342C91.5736 22.4342 91.4174 22.378 91.4174 22.2031C91.4174 22.1157 91.4767 22.0251 91.6517 22.0251C91.9463 22.0154 92.2393 21.9777 92.5268 21.9127C93.1112 21.794 93.255 21.1538 93.3737 20.3076C93.5175 19.0866 93.5175 16.7851 93.5175 13.987L93.4893 8.85626ZM130.216 18.4245H130.323C131.11 15.7452 133.791 7.29486 134.813 3.56624C135.01 2.96055 135.115 2.32912 135.126 1.69256C135.126 1.16793 134.813 0.818174 133.46 0.818174C133.399 0.825244 133.337 0.807901 133.289 0.769905C133.24 0.731909 133.209 0.676321 133.201 0.615192C133.201 0.46842 133.345 0.409087 133.698 0.409087C135.182 0.409087 136.407 0.499648 136.67 0.499648C136.876 0.499648 138.129 0.409087 139.032 0.409087C139.295 0.409087 139.439 0.46842 139.439 0.587086C139.439 0.705753 139.354 0.818174 139.179 0.818174C138.843 0.822339 138.509 0.871706 138.185 0.964945C137.314 1.27723 136.845 2.50761 136.292 4.10961C135.029 7.807 132.085 17.0724 130.948 20.3357C130.188 22.4904 130.044 22.8339 129.723 22.8339C129.401 22.8339 129.254 22.4529 128.847 21.3194L123.135 5.09641H123.075C122.028 7.90693 118.031 18.5869 116.981 21.2975C116.516 22.5185 116.356 22.8402 116.019 22.8402C115.728 22.8402 115.584 22.5279 115 20.5355L109.803 3.26333C109.337 1.72066 108.959 1.28347 108.199 0.989928C107.772 0.870362 107.331 0.811492 106.887 0.815051C106.74 0.815051 106.628 0.786946 106.628 0.612069C106.628 0.437192 106.799 0.405964 107.093 0.405964C108.606 0.405964 110.218 0.496525 110.531 0.496525C110.797 0.496525 112.078 0.405964 113.537 0.405964C113.947 0.405964 114.062 0.496525 114.062 0.612069C114.062 0.786946 113.915 0.815051 113.769 0.815051C113.382 0.795601 112.996 0.855108 112.634 0.989928C112.512 1.0599 112.412 1.16242 112.346 1.28598C112.279 1.40953 112.248 1.54924 112.256 1.68943C112.39 2.59422 112.579 3.49003 112.822 4.37192C113.262 6.2456 116.294 16.9287 116.731 18.4745H116.791L122.957 1.83621C123.394 0.640174 123.513 0.496525 123.685 0.496525C123.857 0.496525 124.072 0.874384 124.416 1.87368L130.216 18.4245ZM152.355 0C158.918 0 163.818 4.13771 163.818 10.9298C163.818 17.4565 159.208 22.8464 152.183 22.8464C144.192 22.8464 140.867 16.6414 140.867 11.3982C140.867 6.6703 144.308 0 152.355 0ZM152.98 21.7316C155.602 21.7316 161.027 20.217 161.027 11.7386C161.027 4.74666 156.771 0.986805 152.164 0.986805C147.292 0.986805 143.648 4.1908 143.648 10.5738C143.639 17.3628 147.72 21.7316 152.971 21.7316H152.98ZM179.019 0C185.582 0 190.479 4.13771 190.479 10.9298C190.479 17.4565 185.872 22.8464 178.844 22.8464C170.853 22.8464 167.528 16.6414 167.528 11.3982C167.528 6.6703 170.972 0 179.019 0ZM179.644 21.7316C182.269 21.7316 187.691 20.217 187.691 11.7386C187.691 4.74666 183.435 0.986805 178.828 0.986805C173.959 0.986805 170.312 4.1908 170.312 10.5738C170.3 17.3628 174.387 21.7316 179.631 21.7316H179.644ZM197.514 8.85626C197.514 4.31259 197.514 3.49441 197.454 2.56382C197.398 1.57389 197.164 1.10547 196.204 0.902489C195.877 0.842867 195.546 0.813596 195.214 0.815051C195.095 0.815051 194.979 0.75884 194.979 0.640174C194.979 0.465297 195.126 0.405964 195.445 0.405964C196.76 0.405964 198.598 0.496525 198.742 0.496525C199.092 0.496525 200.929 0.405964 202.68 0.405964C205.567 0.405964 210.902 0.143649 214.374 3.72862C215.83 5.24318 217.187 7.66023 217.187 11.1297C217.225 14.1689 216.098 17.1077 214.036 19.3426C212.786 20.6542 210.158 22.6934 205.198 22.6934C203.948 22.6934 202.386 22.606 201.136 22.5185C199.886 22.4311 198.864 22.3468 198.717 22.3468C198.657 22.3468 198.161 22.3468 197.551 22.3749C196.942 22.403 196.301 22.4311 195.857 22.4311C195.545 22.4311 195.392 22.3749 195.392 22.2C195.392 22.1125 195.448 22.022 195.626 22.022C195.921 22.0121 196.214 21.9744 196.501 21.9096C197.085 21.7909 197.226 21.1507 197.345 20.3044C197.492 19.0834 197.492 16.7819 197.492 13.9839L197.514 8.85626ZM199.964 12.004C199.964 15.0894 199.992 17.7687 200.023 18.3246C200.048 19.0522 200.108 20.217 200.336 20.5355C200.714 21.0914 201.854 21.7035 205.292 21.7035C208.005 21.7035 210.514 20.7135 212.233 18.996C213.752 17.5095 214.568 14.7115 214.568 12.0321C214.568 8.33163 212.964 5.94269 211.755 4.69045C209.014 1.80498 205.689 1.39901 202.22 1.39901C201.582 1.38927 200.945 1.45743 200.323 1.602C200.21 1.64685 200.115 1.7294 200.055 1.83575C199.996 1.9421 199.974 2.06577 199.995 2.18596C199.967 3.17589 199.967 6.14879 199.967 8.39096L199.964 12.004ZM81.0199 37.6891C80.9793 37.6891 80.9637 37.7078 80.9449 37.7547L80.5074 38.9163C80.4405 39.0743 80.3993 39.2419 80.3855 39.4129C80.3855 39.5596 80.4574 39.6658 80.698 39.6658H80.8199C80.9168 39.6658 80.9418 39.6658 80.9418 39.7314C80.9418 39.797 80.8949 39.8126 80.8043 39.8126C80.5418 39.8126 80.1793 39.7876 79.9417 39.7876C79.8511 39.7876 79.4042 39.8126 78.9792 39.8126C78.8761 39.8126 78.8261 39.8126 78.8261 39.7314C78.8261 39.6502 78.8761 39.6658 78.9386 39.6658C79.0177 39.6708 79.097 39.6708 79.1761 39.6658C79.5511 39.6158 79.7042 39.3535 79.8667 38.932L81.9106 33.8262C82.0075 33.592 82.0637 33.5139 82.1387 33.5139C82.2137 33.5139 82.2606 33.5857 82.3419 33.7731C82.5388 34.2196 83.8388 37.5392 84.3607 38.7696C84.6732 39.5003 84.9076 39.6158 85.0764 39.6564C85.1897 39.6781 85.3048 39.6886 85.4202 39.6877C85.4858 39.6877 85.5264 39.6877 85.5264 39.7532C85.5264 39.8188 85.4514 39.8344 85.1514 39.8344C84.8514 39.8344 84.2139 39.8344 83.5544 39.8344C83.4076 39.8344 83.3669 39.8344 83.3669 39.7689C83.3669 39.7033 83.4013 39.7033 83.4826 39.697C83.5003 39.6903 83.5164 39.68 83.5299 39.6666C83.5433 39.6532 83.5538 39.6372 83.5606 39.6195C83.5674 39.6018 83.5703 39.5828 83.5693 39.5639C83.5682 39.545 83.5632 39.5265 83.5544 39.5097L82.9044 37.7859C82.8995 37.7683 82.8888 37.7529 82.8741 37.7421C82.8593 37.7314 82.8414 37.7259 82.8232 37.7265L81.0199 37.6891ZM82.6794 37.2831C82.7231 37.2831 82.7294 37.2581 82.7231 37.2363L81.9887 35.2252C81.9637 35.1534 81.9325 35.1284 81.8981 35.2252L81.1481 37.2269C81.1481 37.2581 81.1481 37.2831 81.1824 37.2831H82.6794ZM89.211 37.4549C89.211 38.2043 89.211 38.8445 89.2516 39.1943C89.2766 39.4222 89.3266 39.6002 89.5641 39.6346C89.702 39.6531 89.8407 39.6635 89.9798 39.6658C90.0673 39.6658 90.111 39.6908 90.111 39.7314C90.111 39.772 90.0423 39.8126 89.9548 39.8126C89.4172 39.8126 88.9047 39.7876 88.6766 39.7876C88.4484 39.7876 87.9765 39.8126 87.6515 39.8126C87.5453 39.8126 87.489 39.7876 87.489 39.7314C87.489 39.6752 87.5203 39.6658 87.6172 39.6658C87.7159 39.6659 87.8144 39.6555 87.9109 39.6346C88.0734 39.6002 88.1234 39.4222 88.1484 39.1849C88.1891 38.8445 88.1891 38.2043 88.1891 37.4549V34.1197L86.9734 34.1541C86.5015 34.1541 86.3077 34.2103 86.1858 34.3883C86.1242 34.4745 86.0777 34.5706 86.0483 34.6725C86.0296 34.738 86.0077 34.7724 85.9577 34.7724C85.9077 34.7724 85.8827 34.7287 85.8827 34.6412C85.8827 34.5538 86.039 33.77 86.0546 33.7044C86.0702 33.6388 86.1046 33.5514 86.1546 33.5514C86.2666 33.5955 86.3828 33.628 86.5015 33.6482C86.739 33.6732 87.0484 33.6888 87.3171 33.6888H90.5392C90.7274 33.6885 90.9154 33.675 91.1017 33.6482C91.1747 33.6299 91.2488 33.6163 91.3236 33.6076C91.3799 33.6076 91.3861 33.6575 91.3861 33.7793C91.3861 33.9011 91.3642 34.5101 91.3642 34.7162C91.3642 34.7974 91.3392 34.8442 91.2892 34.8442C91.2392 34.8442 91.208 34.8036 91.1986 34.6818C91.1986 34.66 91.1986 34.6194 91.1986 34.5944C91.183 34.382 90.9611 34.1541 90.236 34.1385C90.0267 34.1385 89.6923 34.1385 89.211 34.1135V37.4549ZM98.4459 36.2932C98.4459 37.8546 98.7584 38.5229 99.2897 38.9569C99.6721 39.2632 100.153 39.4198 100.643 39.3972C101.198 39.4057 101.735 39.196 102.137 38.8133C102.734 38.22 102.762 37.2519 102.762 36.1339V34.7817C102.762 33.136 102.762 32.8331 102.74 32.4865C102.718 32.1399 102.63 31.9462 102.274 31.8619C102.145 31.8465 102.014 31.8433 101.884 31.8526C101.765 31.8526 101.699 31.8338 101.699 31.7558C101.699 31.6777 101.777 31.6589 101.927 31.6589C102.48 31.6589 103.162 31.6902 103.177 31.6902C103.305 31.6902 103.99 31.6589 104.412 31.6589C104.562 31.6589 104.637 31.6808 104.637 31.7558C104.637 31.8307 104.574 31.8526 104.443 31.8526C104.338 31.854 104.233 31.8656 104.131 31.8869C103.84 31.94 103.752 32.1242 103.731 32.5115C103.709 32.8987 103.709 33.161 103.709 34.8067V35.9622C103.709 37.1644 103.59 38.4385 102.68 39.2192C102.057 39.7552 101.252 40.0332 100.43 39.9968C99.8553 39.9968 98.8178 39.9656 98.024 39.2505C97.4739 38.754 97.0614 37.9545 97.0614 36.3837V34.8067C97.0614 33.161 97.0614 32.8581 97.0395 32.5115C97.0177 32.1648 96.9333 31.9712 96.5739 31.8869C96.4347 31.8617 96.2934 31.8502 96.152 31.8526C96.0332 31.8526 95.9707 31.8338 95.9707 31.7558C95.9707 31.6777 96.0457 31.6589 96.2082 31.6589C96.7801 31.6589 97.4583 31.6902 97.7708 31.6902C98.0333 31.6902 98.7084 31.6589 99.1021 31.6589C99.2647 31.6589 99.3428 31.6808 99.3428 31.7558C99.3428 31.8307 99.2772 31.8526 99.1678 31.8526C99.0627 31.8537 98.958 31.8652 98.8553 31.8869C98.5615 31.94 98.474 32.1242 98.4552 32.5115C98.4365 32.8987 98.4334 33.161 98.4334 34.8067L98.4459 36.2932ZM110.522 36.6835C110.522 37.6797 110.521 38.5322 110.575 38.9975C110.609 39.3098 110.675 39.5409 110.997 39.5815C111.18 39.6073 111.365 39.6219 111.55 39.6252C111.668 39.6252 111.725 39.6596 111.725 39.7127C111.725 39.7657 111.637 39.8219 111.518 39.8219C110.803 39.8219 110.121 39.7876 109.818 39.7876C109.568 39.7876 108.881 39.8219 108.453 39.8219C108.315 39.8219 108.237 39.7876 108.237 39.7127C108.237 39.6377 108.281 39.6252 108.412 39.6252C108.542 39.6251 108.672 39.6105 108.8 39.5815C109.018 39.5409 109.081 39.3036 109.112 38.9882C109.165 38.5322 109.165 37.6797 109.165 36.6835V32.2492C108.756 32.2492 108.084 32.2835 107.553 32.2929C106.928 32.3147 106.665 32.3678 106.503 32.6052C106.42 32.7195 106.357 32.8473 106.318 32.983C106.296 33.0705 106.265 33.1111 106.199 33.1111C106.134 33.1111 106.103 33.058 106.103 32.9393C106.103 32.7644 106.309 31.7807 106.331 31.6902C106.362 31.5465 106.393 31.4841 106.459 31.4841C106.61 31.5413 106.766 31.5841 106.924 31.6121C107.285 31.6481 107.647 31.6658 108.009 31.6652H112.293C112.543 31.6655 112.793 31.6478 113.04 31.6121C113.137 31.5892 113.235 31.5715 113.334 31.559C113.409 31.559 113.419 31.6246 113.419 31.787C113.419 32.0118 113.387 32.7582 113.387 33.0361C113.387 33.1454 113.356 33.211 113.29 33.211C113.225 33.211 113.181 33.1548 113.172 32.9924C113.172 32.9612 113.172 32.9081 113.172 32.8737C113.153 32.5958 112.859 32.2898 111.897 32.271C111.615 32.271 111.168 32.2492 110.531 32.2367L110.522 36.6835ZM116.319 34.7817C116.319 33.136 116.319 32.8331 116.297 32.4865C116.275 32.1399 116.166 31.9369 115.928 31.8807C115.8 31.85 115.669 31.8354 115.537 31.8369C115.431 31.8369 115.366 31.8182 115.366 31.7308C115.366 31.6433 115.453 31.6433 115.625 31.6433C116.037 31.6433 116.719 31.6746 117.031 31.6746C117.344 31.6746 117.944 31.6433 118.353 31.6433C118.494 31.6433 118.581 31.6652 118.581 31.7308C118.581 31.7964 118.516 31.8369 118.409 31.8369C118.304 31.8396 118.2 31.8511 118.097 31.8713C117.806 31.9244 117.719 32.1086 117.697 32.4959C117.675 32.8831 117.675 33.1454 117.675 34.7911V36.6929C117.675 37.7422 117.675 38.5978 117.719 39.0631C117.753 39.3535 117.828 39.5503 118.153 39.5909C118.336 39.6168 118.521 39.6314 118.706 39.6346C118.825 39.6346 118.878 39.6689 118.878 39.722C118.878 39.7751 118.791 39.8313 118.672 39.8313C117.959 39.8313 117.275 39.797 116.984 39.797C116.694 39.797 116.047 39.8313 115.619 39.8313C115.478 39.8313 115.403 39.797 115.403 39.722C115.403 39.6471 115.447 39.6346 115.578 39.6346C115.708 39.6345 115.838 39.6198 115.966 39.5909C116.181 39.5503 116.247 39.3629 116.278 39.0506C116.331 38.5978 116.331 37.7422 116.331 36.6929L116.319 34.7817ZM122.191 38.7945C121.773 38.4003 121.439 37.9262 121.208 37.4004C120.977 36.8746 120.854 36.3077 120.847 35.7336C120.84 35.1594 120.948 34.5896 121.165 34.0581C121.383 33.5266 121.705 33.0442 122.113 32.6395C122.894 31.9244 123.922 31.4934 125.535 31.4934C126.058 31.4919 126.58 31.5273 127.097 31.5996C127.51 31.6558 127.888 31.7526 128.213 31.7839C128.332 31.7839 128.341 31.8494 128.341 31.915C128.341 31.9806 128.31 32.1305 128.288 32.5084C128.266 32.8862 128.288 33.4608 128.257 33.6763C128.257 33.8387 128.222 33.9386 128.126 33.9386C128.029 33.9386 128.019 33.8387 128.019 33.6888C128.001 33.3167 127.85 32.9634 127.594 32.6926C127.238 32.3147 126.394 32.0212 125.407 32.0212C124.469 32.0212 123.844 32.2617 123.372 32.6926C122.582 33.4171 122.375 34.4445 122.375 35.5031C122.375 38.0763 124.335 39.3535 125.788 39.3535C126.75 39.3535 127.335 39.2442 127.766 38.7477C127.943 38.5409 128.069 38.2962 128.135 38.0326C128.169 37.8608 128.188 37.8202 128.276 37.8202C128.363 37.8202 128.376 37.8952 128.376 37.9795C128.33 38.4645 128.25 38.9456 128.135 39.4191C128.124 39.4931 128.092 39.5623 128.042 39.6179C127.992 39.6735 127.926 39.713 127.854 39.7314C127.222 39.9173 126.565 40.0017 125.907 39.9812C124.407 39.9718 123.163 39.6596 122.178 38.7945H122.191ZM132.373 36.9989C132.316 36.9989 132.295 37.0208 132.276 37.0833L131.688 38.6447C131.6 38.8543 131.546 39.0768 131.529 39.3036C131.529 39.4972 131.623 39.6377 131.96 39.6377H132.123C132.251 39.6377 132.285 39.6596 132.285 39.7251C132.285 39.7907 132.22 39.8344 132.101 39.8344C131.754 39.8344 131.288 39.8001 130.954 39.8001C130.835 39.8001 130.238 39.8344 129.676 39.8344C129.535 39.8344 129.469 39.8126 129.469 39.7251C129.469 39.6377 129.535 39.6377 129.623 39.6377C129.727 39.6371 129.831 39.6298 129.935 39.6158C130.435 39.5534 130.638 39.1849 130.857 38.6447L133.56 31.8526C133.691 31.5403 133.766 31.4216 133.873 31.4216C133.979 31.4216 134.035 31.5184 134.145 31.7682C134.404 32.3616 136.135 36.7647 136.829 38.4198C137.242 39.3941 137.554 39.544 137.767 39.5971C137.916 39.6271 138.068 39.6417 138.22 39.6408C138.307 39.6408 138.36 39.6627 138.36 39.7283C138.36 39.7938 138.264 39.8376 137.864 39.8376C137.464 39.8376 136.614 39.8376 135.742 39.8157C135.548 39.8157 135.492 39.7938 135.492 39.7283C135.492 39.6627 135.535 39.6408 135.645 39.6315C135.669 39.6228 135.69 39.6091 135.708 39.5914C135.727 39.5736 135.741 39.5522 135.75 39.5285C135.759 39.5049 135.763 39.4795 135.762 39.4542C135.76 39.4288 135.753 39.4041 135.742 39.3816L134.876 37.0895C134.869 37.0665 134.854 37.0465 134.834 37.0329C134.814 37.0193 134.791 37.0128 134.767 37.0146L132.373 36.9989ZM134.582 36.4556C134.632 36.4556 134.645 36.4243 134.632 36.3931L133.648 33.7262C133.613 33.6294 133.573 33.5982 133.529 33.7262L132.532 36.3869C132.532 36.4306 132.532 36.4618 132.576 36.4618L134.582 36.4556ZM28.6078 35.1596L71.0006 36.0496C71.2632 36.0496 71.4757 35.7686 71.4757 35.425V34.9035C71.4757 34.5569 71.2632 34.279 71.0006 34.279L28.6078 35.1596ZM188.598 35.1596L146.205 34.3508C146.067 34.3643 145.94 34.4314 145.851 34.5378C145.762 34.6441 145.718 34.7811 145.73 34.9192V35.3876C145.718 35.5256 145.762 35.6626 145.851 35.769C145.94 35.8753 146.067 35.9424 146.205 35.9559L188.598 35.1596Z" fill="white"/>
</g>
<defs>
<clipPath id="clip0_728_2258">
<rect width="217.5" height="40" fill="white"/>
</clipPath>
</defs>
</svg>
